<svg width="600" height="400" xmlns="http://www.w3.org/2000/svg">
  <defs>
    <linearGradient id="interior" x1="0%" y1="0%" x2="100%" y2="100%">
      <stop offset="0%" style="stop-color:#f8f9fa;stop-opacity:1" />
      <stop offset="100%" style="stop-color:#e9ecef;stop-opacity:1" />
    </linearGradient>
  </defs>
  <rect width="600" height="400" fill="url(#interior)"/>
  
  <!-- Siège de voiture -->
  <path d="M150 100 Q200 80 250 100 L250 300 Q200 320 150 300 Z" fill="#495057" opacity="0.8"/>
  <path d="M160 110 Q200 95 240 110 L240 290 Q200 305 160 290 Z" fill="#6c757d" opacity="0.6"/>
  
  <!-- Volant -->
  <circle cx="400" cy="150" r="80" fill="none" stroke="#212529" stroke-width="20"/>
  <circle cx="400" cy="150" r="20" fill="#212529"/>
  
  <!-- Tableau de bord -->
  <rect x="300" y="250" width="250" height="100" rx="10" fill="#343a40" opacity="0.7"/>
  <rect x="320" y="270" width="60" height="40" rx="5" fill="#6c757d"/>
  <rect x="400" y="270" width="60" height="40" rx="5" fill="#6c757d"/>
  <rect x="480" y="270" width="60" height="40" rx="5" fill="#6c757d"/>
  
  <!-- Icône de nettoyage -->
  <circle cx="300" cy="200" r="40" fill="#3AA8F7" opacity="0.3"/>
  <path d="M285 190 L315 190 M300 175 L300 205 M290 180 L310 200 M310 180 L290 200" stroke="#3AA8F7" stroke-width="4" stroke-linecap="round"/>
  
  <text x="300" y="380" text-anchor="middle" fill="#6c757d" font-family="Arial" font-size="18">Nettoyage Intérieur</text>
</svg>